<svg width="114" height="114" viewBox="0 0 114 114" fill="none" xmlns="http://www.w3.org/2000/svg">
<path d="M89.71 112.12H24.41C12.03 112.12 2 102.08 2 89.71V24.41C2 12.03 12.04 2 24.41 2H89.71C102.09 2 112.12 12.04 112.12 24.41V89.71C112.13 102.09 102.09 112.12 89.71 112.12Z" fill="black" stroke="#AC82B9" stroke-width="2.5" stroke-miterlimit="10"/>
<path d="M5.74999 57.46C5.79999 57.81 10.88 57.58 16.41 56.57C22.78 55.4 23.57 54.33 27.17 54.68C30.71 55.03 31.92 56.26 34.46 55.44C37.46 54.47 37.12 52.3 39.68 51.3C43.23 49.91 45.51 53.44 53.7 55.11C55.77 55.53 59.54 56.11 59.75 55.41C60.06 54.37 52.31 50.86 51.6 50.54C46.42 48.21 45.08 48.44 42.75 46.27C40.9 44.55 40.58 43.33 39.22 43.22C37.33 43.08 36.4 45.3 33.33 47.62C31.67 48.88 30.17 49.49 27.26 50.67C17.86 54.45 5.66999 56.9 5.74999 57.46Z" fill="white"/>
<path d="M16.35 60.45C16.24 61.6 22.75 63.47 28.41 64.09C30.41 64.31 33.24 64.6 36.88 64.09C43.09 63.22 44.15 61.05 50.48 60.45C51.68 60.33 53.31 60.25 55.61 59.67C58.79 58.86 58.93 58.19 60.74 57.84C63.9 57.23 65.39 58.9 71.26 60.71C73.46 61.39 74.99 61.69 77.93 62.28C83.76 63.44 101.77 64.61 96.6 64.14C96.6 64.14 93.1 64.03 92.94 64.02C87.78 63.85 78.59 60.64 78.59 60.64C69.68 57.53 65.23 55.93 65.1 53.93C64.97 51.98 67.56 49.61 69.98 48.97C72.11 48.4 74.19 49.18 74.34 48.71C74.51 48.18 71.81 47.56 71.26 45.57C70.88 44.19 71.6 42.41 72.8 41.65C74.2 40.76 75.93 41.49 78.45 42.43C85 44.88 88.27 46.11 88.72 45.57C89.79 44.26 83.07 33.53 75.63 33.87C72.42 34.02 70.18 36.17 68.7 37.53C67.14 38.96 49 55.34 30.72 58.95C22.75 60.51 16.46 59.32 16.35 60.45Z" fill="white"/>
<path d="M71.42 51.9899C71.31 52.8099 73.85 53.9699 78.92 56.2599C83.59 58.3699 84.65 58.53 84.76 58.2C85.03 57.4 81.96 55.2999 82.26 54.4499C82.49 53.8099 84.59 54.1299 86.39 55.1999C88 56.1599 88.21 56.7299 90.06 58.0799C91.49 59.1199 92.68 59.62 95.06 60.62C96.8 61.35 98.9 62.0899 100.52 61.7799C100.6 61.7599 100.75 61.73 100.97 61.7C102.48 61.47 103.66 61.7199 104.02 61.7899C106.04 62.1599 108.82 61.5399 108.84 61.1899C108.86 60.67 102.92 61.7499 97.39 58.2599C96.21 57.5099 94.32 56.0299 90.54 53.0799C88.62 51.5699 88.13 51.15 87.11 50.71C85.5 50.01 83.88 49.84 79.57 50.28C74.21 50.82 71.54 51.0999 71.42 51.9899Z" fill="white"/>
<path d="M25.81 71.2H32.62C36.11 71.2 38.51 73.1399 38.51 76.5099C38.51 79.9399 36.14 81.9599 32.43 81.9599H27.31V90.27H25.81V71.2ZM27.31 80.5999H32.57C35.65 80.5999 36.93 78.9599 36.93 76.5699C36.93 74.0099 35.24 72.5599 32.68 72.5599H27.31V80.5999Z" fill="#AC81B7"/>
<path d="M42.49 71.2H43.96V88.91H54.21L53.94 90.27H42.49V71.2Z" fill="#AC81B7"/>
<path d="M59.27 83.6799L56.84 90.2799H55.34L62.34 71.2H64.08L71.38 90.2799H69.77L67.29 83.6799H59.27ZM66.82 82.3199C64.69 76.6499 63.6 73.9299 63.22 72.6499H63.19C62.73 74.0899 61.5 77.4699 59.78 82.3199H66.82Z" fill="#AC81B7"/>
<path d="M74.78 90.2799V71.2H76.96C79.93 75.78 86.91 86.4299 88.11 88.5099H88.14C87.98 85.7599 88 82.95 88 79.84V71.2H89.5V90.2799H87.48C84.65 85.8599 77.56 74.7699 76.2 72.6799H76.17C76.31 75.1899 76.28 77.9699 76.28 81.4299V90.2899H74.78V90.2799Z" fill="#AC81B7"/>
</svg>
